<svg  xmlns="http://www.w3.org/2000/svg" class="icon--SJP_d" width="1em" height="1em" viewBox="0 0 32 32"><g><path d="M19.863 7.005c3.08-1.276 3.73-2.906 4.817-5.998.085-.24.453-.224.525.019.306 1.029.937 2.735 1.978 3.76 1.063 1.046 2.535 1.8 3.371 2.176.215.097.207.428-.012.515-2.705 1.079-4.269 2.773-5.302 5.643-.084.233-.43.23-.504-.007-.93-2.95-1.765-4.198-4.884-5.624-.206-.094-.199-.398.01-.484Z"></path><path d="M15.907 2.75h.5a1.25 1.25 0 0 1 0 2.5H16c-2.864 0-4.886.003-6.417.209-1.495.2-2.334.575-2.942 1.182-.607.608-.981 1.447-1.182 2.942-.206 1.531-.209 3.553-.209 6.417s.003 4.886.209 6.417c.2 1.495.575 2.334 1.182 2.942.608.607 1.447.981 2.942 1.182 1.531.206 3.553.209 6.417.209s4.886-.003 6.417-.209c1.495-.2 2.334-.575 2.942-1.182.607-.608.981-1.447 1.182-2.942.206-1.531.209-3.553.209-6.417a1.25 1.25 0 1 1 2.5 0v.093c0 2.75 0 4.94-.23 6.657-.24 1.773-.744 3.227-1.893 4.377-1.15 1.15-2.604 1.654-4.377 1.892-1.717.231-3.907.231-6.657.231h-.186c-2.75 0-4.94 0-6.657-.23-1.773-.24-3.227-.744-4.377-1.893-1.15-1.15-1.654-2.604-1.892-4.377-.231-1.717-.231-3.907-.231-6.657v-.186c0-2.75 0-4.94.23-6.657.24-1.773.744-3.227 1.893-4.377 1.15-1.15 2.604-1.654 4.377-1.892 1.717-.231 3.908-.231 6.657-.231Z"></path><path d="M8.977 22.75a1 1 0 0 1-.805-1.593l3.533-4.802a1 1 0 0 1 1.518-.11l.99 1.005a1 1 0 0 0 1.559-.17l1.678-2.677a1 1 0 0 1 1.666-.044l4.78 6.817a1 1 0 0 1-.819 1.574h-14.1ZM12.25 10.25a2 2 0 1 1-4 0 2 2 0 0 1 4 0Z"></path></g></svg>