<svg xmlns="http://www.w3.org/2000/svg" class="icon--SJP_d" width="1em" height="1em" viewBox="0 0 33 32"><g><path d="M19.625 5.875A3.126 3.126 0 0 1 17.75 8.74v1.51h1.835c1.342 0 2.473 0 3.373.121.956.128 1.837.413 2.547 1.124.71.71.995 1.591 1.124 2.547.121.9.121 2.031.121 3.373v4.67c0 1.342 0 2.473-.121 3.373-.129.956-.414 1.837-1.124 2.547-.71.71-1.591.996-2.547 1.124-.9.121-2.031.121-3.373.121h-6.17c-1.342 0-2.473 0-3.373-.121-.956-.128-1.837-.414-2.547-1.124-.71-.71-.996-1.591-1.124-2.547-.121-.9-.121-2.031-.121-3.373v-4.67c0-1.342 0-2.473.121-3.373.128-.956.413-1.837 1.124-2.547.71-.71 1.591-.995 2.547-1.124.9-.121 2.031-.121 3.373-.121h1.835V8.74a3.126 3.126 0 1 1 4.375-2.865ZM5.75 17.75a1.25 1.25 0 1 0-2.5 0v5a1.25 1.25 0 1 0 2.5 0v-5ZM20 22.125c0 .69-.56 1.25-1.25 1.25h-4.5a1.25 1.25 0 1 1 0-2.5h4.5c.69 0 1.25.56 1.25 1.25ZM12.625 18.5a1.25 1.25 0 1 0 0-2.5H12.5a1.25 1.25 0 1 0 0 2.5h.125Zm9.125-1.25c0 .69-.56 1.25-1.25 1.25h-.125a1.25 1.25 0 1 1 0-2.5h.125c.69 0 1.25.56 1.25 1.25Zm8 .5a1.25 1.25 0 1 0-2.5 0v5a1.25 1.25 0 1 0 2.5 0v-5ZM9.263 13.263c.168-.169.433-.323 1.112-.414.714-.096 1.675-.099 3.125-.099h6c1.45 0 2.411.003 3.125.099.679.09.944.245 1.112.414.169.168.323.433.414 1.112.096.714.099 1.675.099 3.125V22c0 1.45-.003 2.411-.099 3.125-.09.679-.245.944-.414 1.112-.168.169-.433.323-1.112.414-.714.096-1.675.099-3.125.099h-6c-1.45 0-2.411-.003-3.125-.099-.679-.09-.944-.245-1.112-.414-.169-.168-.323-.433-.414-1.112-.096-.714-.099-1.675-.099-3.125v-4.5c0-1.45.003-2.411.099-3.125.09-.679.245-.944.414-1.112Z" clip-rule="evenodd" fill-rule="evenodd"></path></g></svg>