<svg xmlns="http://www.w3.org/2000/svg" class="icon--SJP_d" width="1em" height="1em" viewBox="0 0 32 32"><g><path d="M2.75 16C2.75 8.682 8.682 2.75 16 2.75S29.25 8.682 29.25 16v6A7.25 7.25 0 0 1 22 29.25h-6C8.682 29.25 2.75 23.318 2.75 16ZM16 5.25C10.063 5.25 5.25 10.063 5.25 16S10.063 26.75 16 26.75h6A4.75 4.75 0 0 0 26.75 22v-6c0-5.937-4.813-10.75-10.75-10.75Zm-6.875 7.5a1.25 1.25 0 1 1 2.5 0v3.75a1.25 1.25 0 1 1-2.5 0v-3.75ZM17 11.5c-.69 0-1.25.56-1.25 1.25v3.75a1.25 1.25 0 1 0 2.5 0v-3.75c0-.69-.56-1.25-1.25-1.25Z" clip-rule="evenodd" fill-rule="evenodd"></path></g></svg>