<svg xmlns="http://www.w3.org/2000/svg" class="icon--SJP_d" width="1em" height="1em" viewBox="0 0 33 32"><g><path d="M7.125 6.5c0-.69.56-1.25 1.25-1.25h9.542V9.949c0 .338 0 .663.022.937.024.3.082.647.26.995.247.486.642.881 1.128 1.13.348.177.696.234.996.258.274.023.598.023.936.023H25.875V25.5c0 .69-.56 1.25-1.25 1.25H8.375c-.69 0-1.25-.56-1.25-1.25v-19Zm13.292 3.408v-3.07l4.406 3.954H21.3c-.394 0-.614-.001-.774-.014a1.247 1.247 0 0 1-.084-.01l-.002-.002a1.176 1.176 0 0 1-.01-.084 10.91 10.91 0 0 1-.013-.774ZM8.375 2.75a3.75 3.75 0 0 0-3.75 3.75v19a3.75 3.75 0 0 0 3.75 3.75h16.25a3.75 3.75 0 0 0 3.75-3.75V12.293a3.75 3.75 0 0 0-1.246-2.79l-6.457-5.794a3.75 3.75 0 0 0-2.504-.959H8.375Zm2.792 8a1.25 1.25 0 0 0 0 2.5h2.666a1.25 1.25 0 1 0 0-2.5h-2.666Zm0 5.333a1.25 1.25 0 0 0 0 2.5h10.666a1.25 1.25 0 1 0 0-2.5H11.167Zm0 5.334a1.25 1.25 0 0 0 0 2.5h10.666a1.25 1.25 0 0 0 0-2.5H11.167Z" clip-rule="evenodd" fill-rule="evenodd"></path></g></svg>