<svg xmlns="http://www.w3.org/2000/svg" class="icon--SJP_d" width="1em" height="1em" viewBox="0 0 32 32"><g><path d="M19.75 4c0-.69.56-1.25 1.25-1.25h2A6.25 6.25 0 0 1 29.25 9v2a1.25 1.25 0 1 1-2.5 0V9A3.75 3.75 0 0 0 23 5.25h-2c-.69 0-1.25-.56-1.25-1.25Zm4.483 12.074c-.607-1.411-2.609-1.411-3.216 0l-4.915 11.432a1.25 1.25 0 1 0 2.296.988l.968-2.251c.044.005.089.007.134.007h6.387l.965 2.244a1.25 1.25 0 0 0 2.296-.988l-4.915-11.432Zm.579 7.676-2.187-5.086-2.187 5.086h4.374ZM11 29.25a1.25 1.25 0 1 0 0-2.5H9A3.75 3.75 0 0 1 5.25 23v-2a1.25 1.25 0 1 0-2.5 0v2A6.25 6.25 0 0 0 9 29.25h2ZM9.935 2.75c.69 0 1.25.56 1.25 1.25v.602h4.577a1.25 1.25 0 0 1 0 2.5h-1.627a10.816 10.816 0 0 1-2.623 5.939l.008.005a9.009 9.009 0 0 0 5.105 1.58 1.25 1.25 0 1 1 0 2.5 11.508 11.508 0 0 1-7.03-2.392A9.922 9.922 0 0 1 4 16.471a1.25 1.25 0 1 1 0-2.5 7.402 7.402 0 0 0 3.757-1.03 10.993 10.993 0 0 1-1.802-3.175 1.25 1.25 0 0 1 2.349-.855c.32.881.786 1.701 1.374 2.43a8.306 8.306 0 0 0 1.936-4.239H4a1.25 1.25 0 1 1 0-2.5h4.685V4c0-.69.56-1.25 1.25-1.25Z" clip-rule="evenodd" fill-rule="evenodd"></path></g></svg>