<svg xmlns="http://www.w3.org/2000/svg" class="icon--SJP_d" width="1em" height="1em" viewBox="0 0 32 32"><g><path d="M21.3 4.124a3.75 3.75 0 0 1 3.115 0c.364.167.666.396.948.645.267.236.571.54.924.893l.051.051c.352.352.656.656.893.924.249.282.478.584.645.948a3.75 3.75 0 0 1 0 3.115 3.844 3.844 0 0 1-.645.948c-.237.268-.54.572-.893.924l-2.557 2.557a1.354 1.354 0 0 1-.083.084L12.16 26.75H28a1.25 1.25 0 1 1 0 2.5H6.11c-.448 0-.89-.003-1.261-.053-.445-.06-.968-.207-1.403-.643-.436-.436-.584-.958-.644-1.403-.052-.391-.052-.863-.052-1.336v-1.06c-.002-.849-.003-1.602.285-2.297.288-.696.822-1.228 1.423-1.827l.123-.122L19.427 5.662c.353-.353.657-.657.925-.893.281-.249.583-.478.947-.645Zm1.556 8.395 1.689-1.689c.385-.385.633-.634.812-.837.172-.195.223-.285.245-.331.15-.33.15-.709 0-1.039-.022-.046-.073-.136-.245-.331a21.11 21.11 0 0 0-.812-.837 21.076 21.076 0 0 0-.837-.812c-.195-.172-.286-.224-.332-.245a1.25 1.25 0 0 0-1.038 0c-.046.021-.137.073-.332.245-.202.179-.451.427-.837.812l-1.689 1.69 3.376 3.374Zm-5.143-1.607 3.375 3.375L9.723 25.651c-.794.795-.961.93-1.137 1.004-.177.073-.39.095-1.514.095H6.25c-.49 0-.779-.002-.98-.02-.018-.201-.02-.49-.02-.98v-.822c0-1.124.022-1.338.095-1.514.073-.176.209-.343 1.003-1.138l11.365-11.364Z" clip-rule="evenodd" fill-rule="evenodd"></path></g></svg>