<svg xmlns="http://www.w3.org/2000/svg"  class="icon--SJP_d" width="1em" height="1em" fill="currentColor" viewBox="0 0 24 24"><g><path data-follow-fill="currentColor" d="M7.044 4.771A8.066 8.066 0 0 1 12.1 3c1.912 0 3.67.662 5.056 1.771l1.308-1.307 1.273 1.272-1.308 1.308A8.066 8.066 0 0 1 20.2 11.1v.9H4v-.9c0-1.912.662-3.67 1.771-5.056L4.463 4.737l1.273-1.273 1.308 1.308ZM4 13.8h16.2v6.3a.9.9 0 0 1-.9.9H4.9a.9.9 0 0 1-.9-.9v-6.3Zm5.4-4.5a.9.9 0 1 0 0-1.8.9.9 0 0 0 0 1.8Zm5.4 0a.9.9 0 1 0 0-1.8.9.9 0 0 0 0 1.8Z" fill="currentColor"></path></g></svg>