<svg xmlns="http://www.w3.org/2000/svg"  class="icon--SJP_d" width="1em" height="1em" fill="currentColor" viewBox="0 0 24 24"><g><path data-follow-fill="currentColor" fill="currentColor" d="M12.074 7.746c-.79 0-2.013-.898-3.301-.865-1.7.021-3.257.985-4.134 2.51-1.764 3.063-.455 7.587 1.266 10.076.844 1.212 1.84 2.575 3.16 2.532 1.266-.054 1.742-.822 3.28-.822 1.525 0 1.958.822 3.3.79 1.363-.022 2.23-1.234 3.063-2.457a10.88 10.88 0 0 0 1.385-2.846c-.033-.011-2.652-1.018-2.684-4.048-.022-2.532 2.067-3.744 2.164-3.798-1.19-1.742-3.02-1.937-3.658-1.98-1.666-.13-3.062.908-3.841.908Zm2.813-2.554c.704-.844 1.17-2.023 1.04-3.192-1.007.043-2.22.671-2.944 1.515-.65.747-1.212 1.948-1.06 3.095 1.114.087 2.26-.573 2.964-1.418Z"></path></g></svg>