<svg xmlns="http://www.w3.org/2000/svg" class="icon--SJP_d" width="1em" height="1em" fill="currentColor" viewBox="0 0 24 24"><g><path data-follow-fill="currentColor" d="m12.026 22 4.092-7.06a5.053 5.053 0 0 0-.546-6.518h5.729a9.942 9.942 0 0 1-.128 7.633 10.007 10.007 0 0 1-5.51 5.311 12.27 12.27 0 0 1-3.637.634Zm-1.546-.09a10.002 10.002 0 0 1-3.663-1.318 9.956 9.956 0 0 1-2.876-2.614 9.907 9.907 0 0 1-1.827-7.384 8.69 8.69 0 0 1 1.183-3.35l4.091 7.062a5.1 5.1 0 0 0 2.502 2.45 5.132 5.132 0 0 0 3.5.265l-2.91 4.889Zm1.455-6.247c-.72 0-1.423-.212-2.02-.61a3.625 3.625 0 0 1-1.34-1.625 3.606 3.606 0 0 1 .788-3.946 3.642 3.642 0 0 1 3.964-.785 3.634 3.634 0 0 1 1.632 1.334c.4.595.613 1.295.613 2.011a3.684 3.684 0 0 1-1.085 2.54 3.717 3.717 0 0 1-2.552 1.081Zm-5.001-4.888-2.82-4.979A9.905 9.905 0 0 1 7.88 2.861a9.95 9.95 0 0 1 9.262.614 9.888 9.888 0 0 1 3.34 3.408h-8.638A5.555 5.555 0 0 0 8.782 8.07a5.515 5.515 0 0 0-1.848 2.705Z" fill="currentColor"></path></g></svg>