<svg xmlns="http://www.w3.org/2000/svg" class="icon--SJP_d" width="1em" height="1em" fill="none" viewBox="0 0 40 40"><g><g clip-path="url(#chromeStorea:R5calttela:)"><path fill="#F1F3F4" d="M1.667 3.553v29.34a2.502 2.502 0 0 0 2.5 2.5h31.665a2.502 2.502 0 0 0 2.501-2.5l-.002-29.34H1.667Zm14.166 3.503h8.331a1.666 1.666 0 1 1 0 3.333h-8.33a1.666 1.666 0 1 1 0-3.333Z"></path><path fill="#F1F3F4" d="M1.667 3.553v29.34a2.502 2.502 0 0 0 2.5 2.5h31.665a2.502 2.502 0 0 0 2.501-2.5l-.002-29.34H1.667Zm14.166 3.503h8.331a1.666 1.666 0 1 1 0 3.333h-8.33a1.666 1.666 0 1 1 0-3.333Z"></path><path fill="#E8EAED" d="M1.667 3.553v16.005H38.33V3.553H1.667Zm14.166 3.503h8.331a1.666 1.666 0 1 1 0 3.333h-8.33a1.666 1.666 0 1 1 0-3.333Z"></path><path fill="url(#chromeStoreb:R5calttela:)" d="M19.999 17.06c-5.86 0-10.973 3.18-13.71 7.913l2.182 6.66 3.37 3.76h2.145L20 24.977l13.71-.003C30.971 20.241 25.858 17.06 20 17.06Z"></path><path fill="url(#chromeStorec:R5calttela:)" d="M6.288 24.973a15.895 15.895 0 0 0-1.923 10.42h7.938l-6.015-10.42Z"></path><path fill="url(#chromeStored:R5calttela:)" d="m19.999 24.976 6.014 10.418h9.62a15.89 15.89 0 0 0-1.924-10.418H20Z"></path><path fill="#F1F3F4" d="M19.999 24.976a7.916 7.916 0 0 0-7.508 10.418h15.016a7.916 7.916 0 0 0-7.508-10.418Z"></path><path fill="#1A73E8" d="M19.999 26.459a6.429 6.429 0 0 0-6.431 6.433c.004.86.18 1.71.518 2.5h11.826c.338-.79.514-1.64.518-2.5a6.434 6.434 0 0 0-6.431-6.434Z"></path><path fill="#BDC1C6" d="M38.33 19.558H1.668v.207H38.33v-.207ZM38.33 19.348H1.668v.207H38.33v-.207Z" opacity=".1"></path></g><defs><linearGradient gradientUnits="userSpaceOnUse" y2="26.955" x2="33.709" y1="26.955" x1="6.288" id="chromeStoreb:R5calttela:"><stop stop-color="#D93025"></stop><stop stop-color="#EA4335" offset="1"></stop></linearGradient><linearGradient gradientUnits="userSpaceOnUse" y2="23.984" x2="8" y1="47.736" x1="21.714" id="chromeStorec:R5calttela:"><stop stop-color="#1E8E3E"></stop><stop stop-color="#34A853" offset="1"></stop></linearGradient><linearGradient gradientUnits="userSpaceOnUse" y2="48.695" x2="17.729" y1="24.944" x1="31.442" id="chromeStored:R5calttela:"><stop stop-color="#FBBC04"></stop><stop stop-color="#FCC934" offset="1"></stop></linearGradient><clipPath id="chromeStorea:R5calttela:"><path transform="translate(1.667 3.553)" fill="#fff" d="M0 0h36.667v31.84H0z" ></path></clipPath></defs></g></svg>