<svg xmlns="http://www.w3.org/2000/svg"  class="icon--SJP_d" width="1em" height="1em" fill="currentColor" viewBox="0 0 24 24"><g><path data-follow-fill="currentColor" d="M12 2C6.5 2 2 6.5 2 12s4.5 10 10 10c3.56 0 6.7-1.885 8.471-4.706a.337.337 0 0 0 .035-.087c.008-.031.008-.063.008-.094a.339.339 0 0 0-.023-.091.337.337 0 0 0-.052-.08.207.207 0 0 0-.075-.055c-.027-.015-.059-.023-.09-.031a.254.254 0 0 0-.095 0 .23.23 0 0 0-.087.031 4.669 4.669 0 0 1-.767.36c-1.533.525-2.378.545-3.421.502-1.162-.052-2.58-.45-3.576-1.043s-1.814-1.442-2.256-2.181c-.443-.74-.707-1.664-.589-2.845.123-1.209 1.225-2.193 2.517-2.193 1.395 0 2.533 1.11 2.533 2.505 0 .707-.336 1.32-.77 1.814-.096.087-.317.403.24.833.664.51 2.15.751 3.33.692 1.178-.06 2.462-.526 3.343-1.45.7-.74 1.324-1.92 1.324-3.224C22.004 5.445 17.168 2 12 2Z" fill="currentColor"></path></g></svg>
