<svg xmlns="http://www.w3.org/2000/svg" class="icon--SJP_d" width="1em" height="1em" fill="none" viewBox="0 0 41 40"><g><path fill="#FF6153" d="M20.5 36.667c9.205 0 16.667-7.462 16.667-16.667 0-9.204-7.462-16.666-16.667-16.666-9.205 0-16.667 7.462-16.667 16.666 0 9.205 7.462 16.667 16.667 16.667ZM17.912 20.49h4.666c1.365 0 2.47-1.119 2.47-2.5 0-1.38-1.105-2.5-2.47-2.5h-4.666v5Zm-3.294-8.333h7.96c3.184 0 5.765 2.612 5.765 5.833 0 3.222-2.58 5.834-5.765 5.834h-4.666v5h-3.294V12.157Z" clip-rule="evenodd" fill-rule="evenodd" data-follow-fill="#FF6153"></path></g></svg>